<svg width="8" height="6" viewBox="0 0 8 6" fill="none" xmlns="http://www.w3.org/2000/svg">
<path d="M7.72127 0.533768L2.72127 5.53377C2.69224 5.56282 2.65778 5.58587 2.61984 5.6016C2.58191 5.61733 2.54124 5.62542 2.50017 5.62542C2.45911 5.62542 2.41844 5.61733 2.3805 5.6016C2.34257 5.58587 2.3081 5.56282 2.27908 5.53377L0.09158 3.34627C0.0329423 3.28763 0 3.2081 0 3.12517C0 3.04225 0.0329423 2.96272 0.09158 2.90408C0.150218 2.84544 0.229748 2.8125 0.312674 2.8125C0.3956 2.8125 0.47513 2.84544 0.533767 2.90408L2.50017 4.87088L7.27908 0.0915799C7.33772 0.0329421 7.41725 -6.17848e-10 7.50017 0C7.5831 6.17849e-10 7.66263 0.0329421 7.72127 0.0915799C7.77991 0.150218 7.81285 0.229748 7.81285 0.312674C7.81285 0.3956 7.77991 0.47513 7.72127 0.533768Z" fill="#454442"/>
</svg>
