<svg width="10" height="7" viewBox="0 0 10 7" fill="none" xmlns="http://www.w3.org/2000/svg">
<path d="M9.26552 0.640521L3.26552 6.64052C3.23069 6.67539 3.18934 6.70305 3.14381 6.72192C3.09829 6.74079 3.04949 6.7505 3.00021 6.7505C2.95093 6.7505 2.90213 6.74079 2.85661 6.72192C2.81108 6.70305 2.76972 6.67539 2.7349 6.64052L0.109896 4.01552C0.0395308 3.94516 0 3.84972 0 3.75021C0 3.6507 0.0395308 3.55526 0.109896 3.4849C0.180261 3.41453 0.275697 3.375 0.375208 3.375C0.47472 3.375 0.570156 3.41453 0.640521 3.4849L3.00021 5.84505L8.7349 0.109896C8.80526 0.0395306 8.9007 -7.41418e-10 9.00021 0C9.09972 7.41419e-10 9.19516 0.0395306 9.26552 0.109896C9.33589 0.180261 9.37542 0.275697 9.37542 0.375208C9.37542 0.47472 9.33589 0.570156 9.26552 0.640521Z" fill="white"/>
</svg>
